<?xml version="1.0" encoding="utf-8"?>
<!-- Generator: Adobe Illustrator 16.0.0, SVG Export Plug-In . SVG Version: 6.00 Build 0)  -->
<svg version="1.2" baseProfile="tiny" id="Ebene_1" xmlns="http://www.w3.org/2000/svg" xmlns:xlink="http://www.w3.org/1999/xlink"
	 x="0px" y="0px" width="141.73px" height="141.73px" viewBox="0 0 141.73 141.73" xml:space="preserve">
<rect fill="none" stroke="#2D6DA3" stroke-width="3" stroke-miterlimit="10" width="141.73" height="141.73"/>
<text transform="matrix(0.7071 -0.7071 0.7071 0.7071 20.624 126.6738)" font-family="'MyriadPro-Regular'" font-size="29.2765">T</text>
<text transform="matrix(0.7071 -0.7071 0.7071 0.7071 30.9121 116.3848)" font-family="'MyriadPro-Regular'" font-size="29.2765">H</text>
<text transform="matrix(0.7071 -0.7071 0.7071 0.7071 44.4092 102.8877)" font-family="'MyriadPro-Regular'" font-size="29.2765">U</text>
<text transform="matrix(0.7071 -0.7071 0.7071 0.7071 57.8027 89.4941)" font-family="'MyriadPro-Regular'" font-size="29.2765">M</text>
<text transform="matrix(0.7071 -0.7071 0.7071 0.7071 74.4463 72.8506)" font-family="'MyriadPro-Regular'" font-size="29.2765">B</text>
<text transform="matrix(0.7071 -0.7071 0.7071 0.7071 85.667 61.6299)" font-family="'MyriadPro-Regular'" font-size="29.2765">N</text>
<text transform="matrix(0.7071 -0.7071 0.7071 0.7071 99.2881 48.0088)" font-family="'MyriadPro-Regular'" font-size="29.2765">A</text>
<text transform="matrix(0.7071 -0.7071 0.7071 0.7071 111.958 35.3394)" font-family="'MyriadPro-Regular'" font-size="29.2765">I</text>
<text transform="matrix(0.7071 -0.7071 0.7071 0.7071 116.9053 30.3916)" font-family="'MyriadPro-Regular'" font-size="29.2765">L</text>
<text transform="matrix(0.7071 -0.7071 0.7071 0.7071 65.8184 114.6016)" font-family="'MyriadPro-Regular'" font-size="19.5177">{</text>
<text transform="matrix(0.7071 -0.7071 0.7071 0.7071 69.7383 110.6826)" font-family="'MyriadPro-Regular'" font-size="19.5177">v</text>
<text transform="matrix(0.7071 -0.7071 0.7071 0.7071 76.376 104.0439)" font-family="'MyriadPro-Regular'" font-size="19.5177">}</text>
<text transform="matrix(0.7071 -0.7071 0.7071 0.7071 80.2949 100.125)" font-family="'MyriadPro-Regular'" font-size="19.5177">P</text>
<text transform="matrix(0.7071 -0.7071 0.7071 0.7071 87.5684 92.8516)" font-family="'MyriadPro-Regular'" font-size="19.5177">l</text>
<text transform="matrix(0.7071 -0.7071 0.7071 0.7071 90.8252 89.5947)" font-family="'MyriadPro-Regular'" font-size="19.5177">o</text>
<text transform="matrix(0.7071 -0.7071 0.7071 0.7071 98.4023 82.0176)" font-family="'MyriadPro-Regular'" font-size="19.5177">t</text>
<text transform="matrix(0.7071 -0.7071 0.7071 0.7071 102.9287 77.4912)" font-family="'MyriadPro-Regular'" font-size="19.5177">.</text>
<text transform="matrix(0.7071 -0.7071 0.7071 0.7071 105.7852 74.6348)" font-family="'MyriadPro-Regular'" font-size="19.5177">j</text>
<text transform="matrix(0.7071 -0.7071 0.7071 0.7071 109.1396 71.2808)" font-family="'MyriadPro-Regular'" font-size="19.5177">s</text>
</svg>
